<svg xmlns="http://www.w3.org/2000/svg" version="1.2" viewBox="0 0 1550 512" width="550.213026926844" height="181.74778695906073">
	<title>MPHASIS</title>
	<defs>
		<linearGradient id="g1" x2="1" gradientUnits="userSpaceOnUse" gradientTransform="matrix(-175.888,0,0,-213.705,287.747,102.146)">
			<stop offset="0" stop-color="#8452a9"/>
			<stop offset=".39" stop-color="#aa4094"/>
			<stop offset=".69" stop-color="#d02c7f"/>
			<stop offset="1" stop-color="#d02c7f"/>
		</linearGradient>
		<linearGradient id="g2" x2="1" gradientUnits="userSpaceOnUse" gradientTransform="matrix(164.098,0,0,201.988,21.873,415.419)">
			<stop offset="0" stop-color="#2ca7db"/>
			<stop offset=".85" stop-color="#9ecf53"/>
			<stop offset="1" stop-color="#9ecf53"/>
		</linearGradient>
		<linearGradient id="g3" x2="1" gradientUnits="userSpaceOnUse" gradientTransform="matrix(195.755,-195.755,62.994,62.994,-12.233,363.782)">
			<stop offset="0" stop-color="#a4e5f1"/>
			<stop offset="1" stop-color="#2ca7db"/>
		</linearGradient>
	</defs>
	<style>
		.s0 { fill: #231f20 } 
		.s1 { fill: url(#g1) } 
		.s2 { fill: #ea2b61 } 
		.s3 { fill: url(#g2) } 
		.s4 { fill: url(#g3) } 
	</style>
	<path fill-rule="evenodd" class="s0" d="m435.2 379.8v63.3h9.1v-63.3h24.1v-8.2h-57.3v8.2zm70.8-8.2h-8.3v71.5h8.3v-26.3c0-9.1 6.8-16.6 16.6-16.6 9 0 13.6 5.3 13.6 15.1v27.8h8.3v-27.8c0-13.6-6.8-23.4-21.1-23.4-6.1 0.8-12.9 3-17.4 9zm119.1 64.1l-5.3-5.3c-3.8 3.8-10.6 6.1-16.6 6.1-9.8 0-17.3-6.1-18.1-15.1h43c2.2-20.4-9.8-29.4-25.6-29.4-15.1 0-25.7 10.5-25.7 25.6 0 16.6 10.6 26.4 26.4 26.4 7.6 0 16.6-2.3 21.9-8.3zm-5.3-21.1h-34.7c1.5-9.8 9.1-15.1 18.1-15.1 9.8 0 16.6 5.3 16.6 15.1zm88.9-43v71.6h8.3v-54.2l44.4 54.2h6.1v-71.6h-9.1v55.1l-43.7-55.1zm140.2 64.1l-5.3-5.3c-3.8 3.8-10.6 6.1-15.8 6.1-9.8 0-18.1-6.1-18.9-15.1h43c2.2-20.4-9.8-29.4-24.9-29.4-15.8 0-26.4 10.5-26.4 25.6 0 16.6 10.6 26.4 26.4 26.4 8.3 0 16.6-2.3 21.9-8.3zm-5.3-21.1h-34.7c1.5-9.8 9.1-15.1 18.1-15.1 9.8 0 16.6 5.3 16.6 15.1zm33.1 28.6h9.8l14.3-20.3 13.6 20.3h9.8l-18.1-25.6 16.6-24.1v-0.8h-9.1l-12.8 19.6-13.5-19.6h-9.1v0.8l16.6 24.1zm91.2-64.8l-8.3 0.8v13.5h-9.8v7.6h9.8v26.3c0 11.3 5.3 17.4 15.8 17.4 3.8 0 6.8-0.8 9.8-2.3l-2.3-6.8c-2.2 0.8-4.5 1.5-6.7 1.5-6.1 0-8.3-3.7-8.3-9.8v-26.3h15.8v-7.6h-15.8zm116.7-6l-32.3 71.6h9.7l6.8-15.8h41.5l6.7 15.8h9.8l-32.4-71.6zm21.9 47.5h-33.9l17.3-38.5zm-517.6-168.8h32.4v-205.7h-37.6l-67.8 96.4-67.9-96.4h-37.6v205.7h32.4v-157.5l69.3 96.5h6.8l70-96.5z"/>
	<path fill-rule="evenodd" class="s0" d="m667.3 317.3v-211.8h28.6l1.5 23.4c11.3-17.3 31.6-26.4 51.2-26.4 43 0 73.1 31.7 73.1 75.4 0 43.7-28.6 75.3-73.1 75.3-18.1 0-40.7-6.8-51.2-24.1v88.2zm124.3-139.4c0-25.5-20.4-46-45.6-46-25.2 0-45.6 20.5-45.6 46 0 25.4 20.4 45.9 45.6 45.9 25.2 0 45.6-20.5 45.6-45.9zm92.7-133.4v82.1c12-17.3 29.4-23.3 46.7-23.3 40.7 0 59.5 27.1 59.5 68.5v78.4h-30.1v-77.6c0-27.9-14.3-40.7-36.9-40.7-23.4 0-39.2 18.8-39.2 43v75.3h-30.9v-205.7zm261.4 61h29.4v144.7h-28.6l-1.5-23.3c-9.8 18-31.7 27.1-49.8 27.1-42.1 0-73.8-27.1-73.8-76.1 0-49 33.2-75.4 74.6-75.4 20.3 0 39.9 9.8 49 25.6zm-94.2 72.4c0 30.1 21.1 48.2 46.7 48.2 62.5 0 62.5-95.7 0-95.7-25.6 0-46.7 18.1-46.7 47.5zm256.9-36.9c-11.3-10.6-23.4-13.6-37.7-13.6-18.8 0-30.9 6-30.9 17.3 0 12.1 12.8 17.4 30.9 18.9 27.2 2.2 61.8 8.2 61.8 45.2-0.7 27.1-24.1 45.9-61.8 45.9-23.3 0-46.7-5.2-65.5-26.3l15.8-21.9c12.8 15.1 33.2 21.1 50.5 21.9 14.3 0 30.1-5.3 30.9-18.9 0-12.8-12.1-18.1-33.9-20.3-27.2-2.3-58-11.3-58.8-43 0-32.4 33.2-44.4 60.3-44.4 21.8 0 39.2 5.2 55.7 19.6zm83.7-36.2v145.4h-30.2v-145.4zm4.5-42.2c0 24.8-37.6 24.8-37.6 0 0-24.9 37.6-24.9 37.6 0zm128.9 77.6c-11.3-10.5-23.4-12.8-37.7-12.8-18.8-0.8-30.9 5.3-30.9 17.3 0 11.3 12.8 16.6 31.7 18.1 26.3 2.3 61 8.3 61 45.2 0 27.2-24.1 46-61.8 46-23.4 0-46.7-5.3-65.5-26.4l15.8-21.8c13.5 15 33.9 21.1 50.5 21.8 14.3 0 30.8-5.3 30.8-18.8 0-12.8-12-18.1-33.1-20.4-27.9-2.2-58.8-11.3-59.5-42.9 0-32.4 33.1-44.5 60.2-44.5 22.6 0 40 5.3 55.8 19.6z"/>
	<path class="s1" d="m139.9 103.3l97.2 100.9 50.5-52.7-145.5-151.5c-29.3 27.9-30.1 74.6-2.2 103.3z"/>
	<path class="s2" d="m152.7 292.4l134.9-140.9c30.1 30.9 29.3 81.4-0.8 112.3l-81.4 80.6c-14.3 14.3-37.6 14.3-52.7 0-14.3-14.3-14.3-37.7 0-52z"/>
	<path class="s3" d="m21.6 372.3l134.1 139.4c29.4-27.9 30.1-74.6 2.3-104l-85.2-88.9z"/>
	<path class="s4" d="m21.6 372.3l143.9-150c13.6-14.3 13.6-37.6-0.8-51.2-7.5-7.5-16.5-11.3-26.3-11.3-9.1 0-18.9 3.8-26.4 11.3l-88.9 88.9c-30.1 30.2-30.9 80.7-1.5 112.3z"/>
	<path fill-rule="evenodd" class="s0" d="m1157 393.4h8.3v9c3.7-6.7 11.3-10.5 19.5-10.5 14.4 0.8 24.9 10.5 24.9 26.4 0 15.8-10.5 26.4-25.6 26.4-6.8 0-15.1-3.1-18.8-10.6v33.2h-8.3zm44.4 25.2c0-10.2-7.9-18.5-17.7-18.5-9.8 0-17.7 8.3-17.7 18.5 0 10.2 7.9 18.5 17.7 18.5 9.8 0 17.7-8.3 17.7-18.5zm40.7-25.2h8.3l0.7 9.8c3.8-6.8 11.3-10.6 18.9-10.6 15.1 0 25.6 10.6 25.6 25.6 0 15.9-10.5 26.4-25.6 26.4-7.6 0-15.1-3-19.6-10.5v33.1h-8.3zm45.2 25.6c0-10-7.9-18-17.7-18-9.8 0-17.7 8-17.7 18 0 10 7.9 18.1 17.7 18.1 9.8 0 17.7-8.1 17.7-18.1zm49.7-46.7v71.6h-8.3v-71.6zm44.5 21.1v50.5h-8.3v-50.5zm1.5-15.1c0 6.8-11.3 6.8-11.3 0 0-7.5 11.3-7.5 11.3 0zm79.1 57.3c-4.5 6-13.5 9.1-21.1 9.1-15.8 0-27.1-10.6-27.1-26.4 0-15.1 11.3-25.6 26.4-25.6 15.8 0 27.1 9 25.6 29.4h-43c0.8 9 8.3 15 18.1 15 5.3 0 12.8-2.2 15.9-6.8l6 5.3zm-22.6-35.4c-8.3 0-15.8 5.3-17.4 14.3h34.7c-0.7-9-6.8-14.3-17.3-14.3zm107-27.9v71.6h-7.6l-0.7-9c-3.8 6.7-11.3 9.8-18.9 9.8-14.3 0-25.6-9.1-25.6-26.4 0-16.6 11.3-25.6 25.6-25.6 6.8 0 15.1 3 18.9 9.8v-30.2zm-9.1 46.4c0-10.2-7.9-18.5-17.7-18.5-9.8 0-17.7 8.3-17.7 18.5 0 10.2 7.9 18.4 17.7 18.4 9.8 0 17.7-8.2 17.7-18.4z"/>
</svg>